<svg width="330" height="324" viewBox="0 0 330 324" fill="none" xmlns="http://www.w3.org/2000/svg">
<g clip-path="url(#clip0_203_23)">
<mask id="path-1-outside-1_203_23" maskUnits="userSpaceOnUse" x="1" y="4" width="337" height="1293" fill="black">
<rect fill="white" x="1" y="4" width="337" height="1293"/>
<path d="M329.05 115.8L222.65 174.2V153.4L329.05 211L289.85 276.6L190.65 217.4L201.85 210.2L203.45 321.4H128.25L129.05 210.2L140.25 217.4L41.05 276.6L2.65 211L109.05 153.4V174.2L2.65 115.8L41.05 50.2L140.25 110.2L129.05 116.6L128.25 5.39997H203.45L201.85 116.6L190.65 110.2L289.85 50.2L329.05 115.8ZM336.863 1090.8L230.463 1149.2V1128.4L336.863 1186L297.663 1251.6L198.463 1192.4L209.663 1185.2L211.262 1296.4H136.063L136.863 1185.2L148.063 1192.4L48.8625 1251.6L10.4625 1186L116.863 1128.4V1149.2L10.4625 1090.8L48.8625 1025.2L148.063 1085.2L136.863 1091.6L136.063 980.4H211.262L209.663 1091.6L198.463 1085.2L297.663 1025.2L336.863 1090.8Z"/>
</mask>
<path d="M329.05 115.8L329.291 116.238L329.745 115.989L329.479 115.543L329.05 115.8ZM222.65 174.2H222.15V175.045L222.891 174.638L222.65 174.2ZM222.65 153.4L222.888 152.96L222.15 152.561V153.4H222.65ZM329.05 211L329.479 211.256L329.747 210.809L329.288 210.56L329.05 211ZM289.85 276.6L289.594 277.029L290.023 277.285L290.279 276.856L289.85 276.6ZM190.65 217.4L190.38 216.979L189.701 217.416L190.394 217.829L190.65 217.4ZM201.85 210.2L202.35 210.193L202.337 209.293L201.58 209.779L201.85 210.2ZM203.45 321.4V321.9H203.957L203.95 321.393L203.45 321.4ZM128.25 321.4L127.75 321.396L127.746 321.9H128.25V321.4ZM129.05 210.2L129.32 209.779L128.557 209.288L128.55 210.196L129.05 210.2ZM140.25 217.4L140.506 217.829L141.199 217.416L140.52 216.979L140.25 217.4ZM41.05 276.6L40.6185 276.853L40.8732 277.288L41.3062 277.029L41.05 276.6ZM2.65 211L2.41197 210.56L1.95732 210.806L2.21849 211.253L2.65 211ZM109.05 153.4H109.55V152.561L108.812 152.96L109.05 153.4ZM109.05 174.2L108.809 174.638L109.55 175.045V174.2H109.05ZM2.65 115.8L2.21849 115.547L1.95883 115.991L2.40942 116.238L2.65 115.8ZM41.05 50.2L41.3088 49.7721L40.8747 49.5096L40.6185 49.9474L41.05 50.2ZM140.25 110.2L140.498 110.634L141.236 110.212L140.509 109.772L140.25 110.2ZM129.05 116.6L128.55 116.604L128.556 117.458L129.298 117.034L129.05 116.6ZM128.25 5.39997V4.89997H127.746L127.75 5.40356L128.25 5.39997ZM203.45 5.39997L203.95 5.40716L203.957 4.89997H203.45V5.39997ZM201.85 116.6L201.602 117.034L202.338 117.455L202.35 116.607L201.85 116.6ZM190.65 110.2L190.391 109.772L189.664 110.212L190.402 110.634L190.65 110.2ZM289.85 50.2L290.279 49.9435L290.021 49.512L289.591 49.7721L289.85 50.2ZM328.809 115.362L222.409 173.762L222.891 174.638L329.291 116.238L328.809 115.362ZM223.15 174.2V153.4H222.15V174.2H223.15ZM222.412 153.84L328.812 211.44L329.288 210.56L222.888 152.96L222.412 153.84ZM328.621 210.744L289.421 276.344L290.279 276.856L329.479 211.256L328.621 210.744ZM290.106 276.171L190.906 216.971L190.394 217.829L289.594 277.029L290.106 276.171ZM190.92 217.821L202.12 210.621L201.58 209.779L190.38 216.979L190.92 217.821ZM201.35 210.207L202.95 321.407L203.95 321.393L202.35 210.193L201.35 210.207ZM203.45 320.9H128.25V321.9H203.45V320.9ZM128.75 321.404L129.55 210.204L128.55 210.196L127.75 321.396L128.75 321.404ZM128.78 210.621L139.98 217.821L140.52 216.979L129.32 209.779L128.78 210.621ZM139.994 216.971L40.7938 276.171L41.3062 277.029L140.506 217.829L139.994 216.971ZM41.4815 276.347L3.08151 210.747L2.21849 211.253L40.6185 276.853L41.4815 276.347ZM2.88804 211.44L109.288 153.84L108.812 152.96L2.41197 210.56L2.88804 211.44ZM108.55 153.4V174.2H109.55V153.4H108.55ZM109.291 173.762L2.89058 115.362L2.40942 116.238L108.809 174.638L109.291 173.762ZM3.08151 116.053L41.4815 50.4526L40.6185 49.9474L2.21849 115.547L3.08151 116.053ZM40.7912 50.6278L139.991 110.628L140.509 109.772L41.3088 49.7721L40.7912 50.6278ZM140.002 109.766L128.802 116.166L129.298 117.034L140.498 110.634L140.002 109.766ZM129.55 116.596L128.75 5.39637L127.75 5.40356L128.55 116.604L129.55 116.596ZM128.25 5.89997H203.45V4.89997H128.25V5.89997ZM202.95 5.39277L201.35 116.593L202.35 116.607L203.95 5.40716L202.95 5.39277ZM202.098 116.166L190.898 109.766L190.402 110.634L201.602 117.034L202.098 116.166ZM190.909 110.628L290.109 50.6278L289.591 49.7721L190.391 109.772L190.909 110.628ZM289.421 50.4564L328.621 116.056L329.479 115.543L290.279 49.9435L289.421 50.4564ZM336.863 1090.8L337.103 1091.24L337.558 1090.99L337.292 1090.54L336.863 1090.8ZM230.463 1149.2H229.963V1150.04L230.703 1149.64L230.463 1149.2ZM230.463 1128.4L230.701 1127.96L229.963 1127.56V1128.4H230.463ZM336.863 1186L337.292 1186.26L337.559 1185.81L337.101 1185.56L336.863 1186ZM297.663 1251.6L297.406 1252.03L297.835 1252.29L298.092 1251.86L297.663 1251.6ZM198.463 1192.4L198.192 1191.98L197.513 1192.42L198.206 1192.83L198.463 1192.4ZM209.663 1185.2L210.162 1185.19L210.15 1184.29L209.392 1184.78L209.663 1185.2ZM211.262 1296.4V1296.9H211.77L211.762 1296.39L211.262 1296.4ZM136.063 1296.4L135.563 1296.4L135.559 1296.9H136.063V1296.4ZM136.863 1185.2L137.133 1184.78L136.369 1184.29L136.363 1185.2L136.863 1185.2ZM148.063 1192.4L148.319 1192.83L149.012 1192.42L148.333 1191.98L148.063 1192.4ZM48.8625 1251.6L48.431 1251.85L48.6857 1252.29L49.1187 1252.03L48.8625 1251.6ZM10.4625 1186L10.2245 1185.56L9.76982 1185.81L10.031 1186.25L10.4625 1186ZM116.863 1128.4H117.363V1127.56L116.624 1127.96L116.863 1128.4ZM116.863 1149.2L116.622 1149.64L117.363 1150.04V1149.2H116.863ZM10.4625 1090.8L10.031 1090.55L9.77133 1090.99L10.2219 1091.24L10.4625 1090.8ZM48.8625 1025.2L49.1213 1024.77L48.6872 1024.51L48.431 1024.95L48.8625 1025.2ZM148.063 1085.2L148.311 1085.63L149.049 1085.21L148.321 1084.77L148.063 1085.2ZM136.863 1091.6L136.363 1091.6L136.369 1092.46L137.111 1092.03L136.863 1091.6ZM136.063 980.4V979.9H135.559L135.563 980.404L136.063 980.4ZM211.262 980.4L211.762 980.407L211.77 979.9H211.262V980.4ZM209.663 1091.6L209.414 1092.03L210.15 1092.45L210.162 1091.61L209.663 1091.6ZM198.463 1085.2L198.204 1084.77L197.476 1085.21L198.214 1085.63L198.463 1085.2ZM297.663 1025.2L298.092 1024.94L297.834 1024.51L297.404 1024.77L297.663 1025.2ZM336.622 1090.36L230.222 1148.76L230.703 1149.64L337.103 1091.24L336.622 1090.36ZM230.963 1149.2V1128.4H229.963V1149.2H230.963ZM230.224 1128.84L336.624 1186.44L337.101 1185.56L230.701 1127.96L230.224 1128.84ZM336.433 1185.74L297.233 1251.34L298.092 1251.86L337.292 1186.26L336.433 1185.74ZM297.919 1251.17L198.719 1191.97L198.206 1192.83L297.406 1252.03L297.919 1251.17ZM198.733 1192.82L209.933 1185.62L209.392 1184.78L198.192 1191.98L198.733 1192.82ZM209.163 1185.21L210.763 1296.41L211.762 1296.39L210.162 1185.19L209.163 1185.21ZM211.262 1295.9H136.063V1296.9H211.262V1295.9ZM136.562 1296.4L137.362 1185.2L136.363 1185.2L135.563 1296.4L136.562 1296.4ZM136.592 1185.62L147.792 1192.82L148.333 1191.98L137.133 1184.78L136.592 1185.62ZM147.806 1191.97L48.6063 1251.17L49.1187 1252.03L148.319 1192.83L147.806 1191.97ZM49.294 1251.35L10.894 1185.75L10.031 1186.25L48.431 1251.85L49.294 1251.35ZM10.7005 1186.44L117.101 1128.84L116.624 1127.96L10.2245 1185.56L10.7005 1186.44ZM116.363 1128.4V1149.2H117.363V1128.4H116.363ZM117.103 1148.76L10.7031 1090.36L10.2219 1091.24L116.622 1149.64L117.103 1148.76ZM10.894 1091.05L49.294 1025.45L48.431 1024.95L10.031 1090.55L10.894 1091.05ZM48.6037 1025.63L147.804 1085.63L148.321 1084.77L49.1213 1024.77L48.6037 1025.63ZM147.814 1084.77L136.614 1091.17L137.111 1092.03L148.311 1085.63L147.814 1084.77ZM137.362 1091.6L136.562 980.396L135.563 980.404L136.363 1091.6L137.362 1091.6ZM136.063 980.9H211.262V979.9H136.063V980.9ZM210.763 980.393L209.163 1091.59L210.162 1091.61L211.762 980.407L210.763 980.393ZM209.911 1091.17L198.711 1084.77L198.214 1085.63L209.414 1092.03L209.911 1091.17ZM198.721 1085.63L297.921 1025.63L297.404 1024.77L198.204 1084.77L198.721 1085.63ZM297.233 1025.46L336.433 1091.06L337.292 1090.54L298.092 1024.94L297.233 1025.46Z" fill="#A4A4A4" mask="url(#path-1-outside-1_203_23)"/>
</g>
<defs>
<clipPath id="clip0_203_23">
<rect width="330" height="324" fill="white"/>
</clipPath>
</defs>
</svg>
